<svg width="24" height="24" viewBox="0 0 24 24" fill="none"><path fill-rule="evenodd" clip-rule="evenodd" d="M0.5164 7.14319C1.32829 3.21545 3.8263 1.02782 7.72282 0.366909C10.6032 -0.121503 13.4847 -0.12767 16.3602 0.380652C20.3723 1.08984 22.7841 3.40504 23.5524 7.39215C24.1461 10.4736 24.1554 13.5879 23.5431 16.6663C22.7218 20.5669 20.1593 22.9747 16.2772 23.6331C13.3968 24.1215 10.5153 24.1277 7.63977 23.6193C3.62772 22.9102 1.20521 20.4794 0.436861 16.4923C-0.186982 13.3905 -0.126933 10.2566 0.5164 7.14319Z" fill="url(#paint0_linear_3153_2362)"></path><path fill-rule="evenodd" clip-rule="evenodd" d="M12 6.10015C8.74154 6.10015 6.10002 8.74167 6.10002 12.0001C6.10002 14.2755 7.38793 16.2511 9.27734 17.2359C9.57119 17.389 9.68525 17.7514 9.53209 18.0452C9.37894 18.3391 9.01657 18.4532 8.72271 18.3C6.45234 17.1167 4.90002 14.7402 4.90002 12.0001C4.90002 8.07892 8.0788 4.90015 12 4.90015C14.7401 4.90015 17.1166 6.45245 18.2999 8.7228C18.453 9.01665 18.339 9.37903 18.0451 9.53218C17.7513 9.68534 17.3889 9.57128 17.2357 9.27743C16.251 7.38804 14.2754 6.10015 12 6.10015ZM12 11.1001C11.503 11.1001 11.1 11.5031 11.1 12.0001C11.1 12.4972 11.503 12.9001 12 12.9001C12.4971 12.9001 12.9 12.4972 12.9 12.0001C12.9 11.5031 12.4971 11.1001 12 11.1001ZM9.90002 12.0001C9.90002 10.8403 10.8402 9.90015 12 9.90015C13.1598 9.90015 14.1 10.8403 14.1 12.0001C14.1 13.1599 13.1598 14.1001 12 14.1001C10.8402 14.1001 9.90002 13.1599 9.90002 12.0001ZM17.0621 11.5276C16.8814 11.3862 16.6358 11.3602 16.4295 11.4607C16.2232 11.5612 16.0923 11.7706 16.0923 12.0001V15.1229C15.7261 14.9093 15.2993 14.7872 14.8461 14.7872C13.5075 14.7872 12.4 15.8524 12.4 17.1936C12.4 18.5349 13.5075 19.6001 14.8461 19.6001C16.1847 19.6001 17.2923 18.5349 17.2923 17.1936V13.2317L18.6302 14.279C18.8911 14.4833 19.2682 14.4373 19.4725 14.1764C19.6767 13.9154 19.6308 13.5383 19.3698 13.3341L17.0621 11.5276ZM14.8461 15.9872C15.5467 15.9872 16.0923 16.5396 16.0923 17.1936C16.0923 17.8477 15.5467 18.4001 14.8461 18.4001C14.1456 18.4001 13.6 17.8477 13.6 17.1936C13.6 16.5396 14.1456 15.9872 14.8461 15.9872Z" fill="#FEFFFF"></path><defs><linearGradient id="paint0_linear_3153_2362" x1="0" y1="0" x2="24" y2="24" gradientUnits="userSpaceOnUse"><stop stop-color="#FF52B1"></stop><stop offset="1" stop-color="#FF3DA8"></stop></linearGradient></defs></svg>