<svg width="24" height="24" viewBox="0 0 24 24" fill="none"><path fill-rule="evenodd" clip-rule="evenodd" d="M0.5164 7.14319C1.32829 3.21545 3.8263 1.02782 7.72282 0.366909C10.6032 -0.121503 13.4847 -0.12767 16.3602 0.380652C20.3723 1.08984 22.7841 3.40504 23.5524 7.39215C24.1461 10.4736 24.1554 13.5879 23.5431 16.6663C22.7218 20.5669 20.1593 22.9747 16.2772 23.6331C13.3968 24.1215 10.5153 24.1277 7.63977 23.6193C3.62772 22.9102 1.20521 20.4794 0.436861 16.4923C-0.186982 13.3905 -0.126933 10.2566 0.5164 7.14319Z" fill="url(#paint0_linear_2645_12880)"></path><path fill-rule="evenodd" clip-rule="evenodd" d="M5.06671 10.113C5.06671 7.59443 6.80969 5.73334 9.0816 5.73334C10.1678 5.73334 11.3216 6.37866 11.9998 7.50869C12.6785 6.37873 13.8322 5.73334 14.9185 5.73334C17.1904 5.73334 18.9334 7.59443 18.9334 10.113C18.9334 11.5975 18.2328 13.0132 17.1576 14.3049C16.0796 15.5998 14.5849 16.8197 12.8936 17.9267C12.7866 17.9972 12.6568 18.0746 12.5214 18.1367C12.4002 18.1922 12.2093 18.2667 12 18.2667C11.791 18.2667 11.6 18.1924 11.4786 18.1368C11.3428 18.0746 11.2127 17.997 11.1052 17.9259C9.41323 16.819 7.91897 15.5995 6.84157 14.3048C5.76654 13.013 5.06671 11.5973 5.06671 10.113ZM9.0816 6.93334C7.55795 6.93334 6.26671 8.16829 6.26671 10.113C6.26671 11.2116 6.78688 12.3631 7.76395 13.5372C8.73832 14.7081 10.1277 15.8526 11.7635 16.9225L11.7664 16.9244C11.842 16.9745 11.9165 17.0175 11.9781 17.0457C11.9861 17.0493 11.9933 17.0525 11.9999 17.0553C12.0064 17.0525 12.0135 17.0494 12.0214 17.0458C12.0831 17.0175 12.1579 16.9744 12.2349 16.9237L12.2364 16.9227C13.8711 15.8527 15.2606 14.7081 16.2353 13.5372C17.2128 12.363 17.7334 11.2114 17.7334 10.113C17.7334 8.16829 16.4421 6.93334 14.9185 6.93334C14.1415 6.93334 13.1387 7.53633 12.7557 8.73115L12.7553 8.73243C12.6437 9.07798 12.3337 9.28998 11.9996 9.28998C11.6655 9.28998 11.3554 9.07798 11.2438 8.73243L11.2433 8.73082C10.8613 7.53633 9.85866 6.93334 9.0816 6.93334ZM11.9576 17.0704C11.9576 17.0704 11.9581 17.0703 11.9592 17.07ZM12.0407 17.07C12.0416 17.0702 12.0421 17.0703 12.0422 17.0704Z" fill="#FEFFFF"></path><defs><linearGradient id="paint0_linear_2645_12880" x1="0" y1="0" x2="24" y2="24" gradientUnits="userSpaceOnUse"><stop stop-color="#29CCFF"></stop><stop offset="1" stop-color="#00C2FF"></stop></linearGradient></defs></svg>