<svg width="24" height="24" viewBox="0 0 24 24" fill="currentColor"><path fill-rule="evenodd" clip-rule="evenodd" d="M20.25 2C20.25 1.58579 19.9142 1.25 19.5 1.25C19.0858 1.25 18.75 1.58579 18.75 2C18.75 2.95195 18.4626 3.63685 18.0656 4.07478C17.6709 4.51015 17.1258 4.75 16.5 4.75C16.0858 4.75 15.75 5.08579 15.75 5.5C15.75 5.91421 16.0858 6.25 16.5 6.25C17.126 6.25 17.671 6.48996 18.0657 6.9254C18.4628 7.36341 18.75 8.04835 18.75 9C18.75 9.41421 19.0858 9.75 19.5 9.75C19.9142 9.75 20.25 9.41421 20.25 9C20.25 8.04805 20.5374 7.36315 20.9344 6.92522C21.3291 6.48985 21.8742 6.25 22.5 6.25C22.9142 6.25 23.25 5.91421 23.25 5.5C23.25 5.08579 22.9142 4.75 22.5 4.75C21.874 4.75 21.329 4.51004 20.9343 4.0746C20.5372 3.63659 20.25 2.95165 20.25 2ZM19.1769 5.08231C19.2934 4.95373 19.4013 4.81641 19.5 4.6709C19.5987 4.81629 19.7064 4.95351 19.8229 5.082C19.9625 5.23602 20.1129 5.37549 20.2725 5.49999C20.113 5.62441 19.9627 5.76378 19.8231 5.91769C19.7066 6.04627 19.5987 6.18359 19.5 6.3291C19.4013 6.18371 19.2936 6.04649 19.1771 5.918C19.0375 5.76398 18.8871 5.62451 18.7275 5.50001C18.887 5.37559 19.0373 5.23622 19.1769 5.08231ZM13.5095 5.31294C13.5652 5.72339 13.2776 6.10128 12.8672 6.15698L12.3492 6.22728L11.3238 6.36644C10.186 6.55633 9.25 7.65728 9.25 8.74999V18.5C9.25 20.5711 7.57107 22.25 5.5 22.25C3.42893 22.25 1.75 20.5711 1.75 18.5C1.75 16.4289 3.42893 14.75 5.5 14.75C6.3442 14.75 7.12325 15.0289 7.75 15.4997V8.74999C7.75 6.89294 9.25015 5.18376 11.0921 4.88439L11.1116 4.88149L12.1475 4.7409L12.6655 4.67061C13.0759 4.61491 13.4538 4.90249 13.5095 5.31294ZM5.5 16.25C6.74264 16.25 7.75 17.2573 7.75 18.5C7.75 19.7426 6.74264 20.75 5.5 20.75C4.25736 20.75 3.25 19.7426 3.25 18.5C3.25 17.2573 4.25736 16.25 5.5 16.25ZM19.5 11.75C19.9142 11.75 20.25 12.0858 20.25 12.5V17.5C20.25 19.5711 18.5711 21.25 16.5 21.25C14.4289 21.25 12.75 19.5711 12.75 17.5C12.75 15.4289 14.4289 13.75 16.5 13.75C17.3442 13.75 18.1233 14.0289 18.75 14.4997V12.5C18.75 12.0858 19.0858 11.75 19.5 11.75ZM16.5 15.25C17.7426 15.25 18.75 16.2573 18.75 17.5C18.75 18.7426 17.7426 19.75 16.5 19.75C15.2574 19.75 14.25 18.7426 14.25 17.5C14.25 16.2573 15.2574 15.25 16.5 15.25Z" fill-opacity="0.8"></path></svg>