<svg xmlns="http://www.w3.org/2000/svg" viewBox="0 0 640 512">
    <defs>
        <linearGradient id="gradient">
            <stop offset="0%" stop-color="rgba(255, 0, 0, 1)"/>
            <stop offset="10%" stop-color="rgba(255, 154, 0, 1)"/>
            <stop offset="20%" stop-color="rgba(208, 222, 33, 1)"/>
            <stop offset="30%" stop-color="rgba(79, 220, 74, 1)"/>
            <stop offset="40%" stop-color="rgba(63, 218, 216, 1)"/>
            <stop offset="50%" stop-color="rgba(47, 201, 226, 1)"/>
            <stop offset="60%" stop-color="rgba(28, 127, 238, 1)"/>
            <stop offset="70%" stop-color="rgba(95, 21, 242, 1)"/>
            <stop offset="80%" stop-color="rgba(186, 12, 248, 1)"/>
            <stop offset="90%" stop-color="rgba(251, 7, 217, 1)"/>
            <stop offset="100%" stop-color="rgba(255, 0, 0, 1)"/>
        </linearGradient>
    </defs>
    <g fill="url(#gradient)">
        <path d="M211.8 0c7.8 0 14.3 5.7 16.7 13.2C240.8 51.9 277.1 80 320 80s79.2-28.1 91.5-66.8C413.9
5.7 420.4 0 428.2 0l12.6 0c22.5 0 44.2 7.9 61.5 22.3L628.5 127.4c6.6 5.5 10.7 13.5 11.4 22.1s-2.1
17.1-7.8 23.6l-56 64c-11.4 13.1-31.2 14.6-44.6 3.5L480 197.7 480 448c0 35.3-28.7 64-64 64l-192
0c-35.3 0-64-28.7-64-64l0-250.3-51.5 42.9c-13.3 11.1-33.1 9.6-44.6-3.5l-56-64c-5.7-6.5-8.5-15-7.8-23.6s4.8-16.6
11.4-22.1L137.7 22.3C155 7.9 176.7 0 199.2 0l12.6 0z"/>
    </g>
</svg>