<svg width="24" height="24" viewBox="0 0 24 24" fill="none"><rect x="3" y="3" width="7.57895" height="7.57895" rx="1.89474" stroke="currentColor" stroke-opacity="0.8" stroke-width="1.5"></rect><rect x="13.4211" y="3" width="7.57895" height="7.57895" rx="3.78947" stroke="currentColor" stroke-opacity="0.8" stroke-width="1.5"></rect><path d="M7.02442 20.7272C6.89558 20.7751 6.68337 20.7751 6.55453 20.7272C5.45558 20.3321 3 18.6835 3 15.8893C3 14.6558 3.94358 13.6579 5.10695 13.6579C5.79663 13.6579 6.40674 14.0092 6.78947 14.552C7.17221 14.0092 7.78611 13.6579 8.472 13.6579C9.63537 13.6579 10.5789 14.6558 10.5789 15.8893C10.5789 18.6835 8.12337 20.3321 7.02442 20.7272Z" stroke="currentColor" stroke-opacity="0.8" stroke-width="1.5" stroke-linecap="round" stroke-linejoin="round"></path><path d="M14.3684 13.7475L14.3684 20.6735C14.3684 20.819 14.5256 20.9102 14.6519 20.838L20.7121 17.375C20.8394 17.3023 20.8394 17.1188 20.7121 17.046L14.6519 13.583C14.5256 13.5109 14.3684 13.6021 14.3684 13.7475Z" stroke="currentColor" stroke-opacity="0.8" stroke-width="1.5"></path></svg>