<svg width="24" height="24" viewBox="0 0 24 24" fill="currentColor"><path fill-rule="evenodd" clip-rule="evenodd" d="M1.76078 11.5281C2.0086 6.08576 6.49865 1.75 12.0018 1.75C14.0559 1.75 15.971 2.35489 17.5759 3.39648C17.9234 3.62198 18.0222 4.08645 17.7967 4.4339C17.5712 4.78136 17.1068 4.88023 16.7593 4.65473C15.3901 3.76614 13.7574 3.25 12.0018 3.25C7.30422 3.25 3.47074 6.95138 3.25923 11.5963C3.24039 12.0101 2.88968 12.3303 2.47589 12.3114C2.06211 12.2926 1.74194 11.9419 1.76078 11.5281ZM21.5275 11.6871C21.9413 11.7057 22.2617 12.0563 22.243 12.4701C21.998 17.9149 17.5067 22.2536 12.0018 22.2536C9.89696 22.2536 7.93821 21.6184 6.30952 20.5292C5.9652 20.299 5.87274 19.8332 6.103 19.4889C6.33327 19.1446 6.79905 19.0521 7.14337 19.2824C8.53298 20.2117 10.203 20.7536 12.0018 20.7536C16.7009 20.7536 20.5354 17.0497 20.7445 12.4026C20.7632 11.9888 21.1137 11.6685 21.5275 11.6871ZM20.7535 8.05986C20.7535 7.40256 20.2207 6.86972 19.5634 6.86972C18.9061 6.86972 18.3732 7.40256 18.3732 8.05986C18.3732 8.71715 18.9061 9.25 19.5634 9.25C20.2207 9.25 20.7535 8.71715 20.7535 8.05986ZM19.5634 5.36972C21.0491 5.36972 22.2535 6.57413 22.2535 8.05986C22.2535 9.54558 21.0491 10.75 19.5634 10.75C19.1208 10.75 18.7031 10.6431 18.3349 10.4537L15.5083 14.5112C15.3814 14.6933 15.1803 14.8099 14.9592 14.8295C14.738 14.8491 14.5196 14.7698 14.3626 14.6128L13.3637 13.6139L12.2257 15.3202C12.0906 15.5227 11.8658 15.6471 11.6225 15.6538C11.3793 15.6605 11.1478 15.5488 11.0018 15.3542L9.05228 12.7558L6.78385 15.0242C6.75187 15.0562 6.71772 15.0847 6.68188 15.1097C6.80299 15.4073 6.86972 15.7328 6.86972 16.074C6.86972 17.4877 5.72363 18.6338 4.30986 18.6338C2.89609 18.6338 1.75 17.4877 1.75 16.074C1.75 14.6602 2.89609 13.5141 4.30986 13.5141C4.83856 13.5141 5.32983 13.6744 5.73772 13.949L8.60299 11.0837C8.75671 10.93 8.96957 10.8506 9.18642 10.8659C9.40327 10.8813 9.60278 10.9901 9.73324 11.164L11.5657 13.6064L12.6234 12.0207C12.748 11.8338 12.9499 11.7126 13.1735 11.6905C13.3971 11.6684 13.6188 11.7477 13.7776 11.9065L14.7897 12.9186L17.2351 9.40829C17.005 9.01185 16.8732 8.55124 16.8732 8.05986C16.8732 6.57413 18.0777 5.36972 19.5634 5.36972ZM4.30986 15.0141C4.8952 15.0141 5.36972 15.4886 5.36972 16.074C5.36972 16.6593 4.8952 17.1338 4.30986 17.1338C3.72452 17.1338 3.25 16.6593 3.25 16.074C3.25 15.4886 3.72452 15.0141 4.30986 15.0141Z" fill="#currentColor" fill-opacity="0.8"></path></svg>
